<svg width="64" height="64" viewBox="0 0 64 64" fill="none" xmlns="http://www.w3.org/2000/svg">
  <!-- ClubOS Bug - The Gathering Symbol -->
  <path d="M8 8 C8 24, 24 32, 32 32 C24 32, 8 24, 8 8" fill="#4F46E5" opacity="0.9"/>
  <path d="M56 8 C56 24, 40 32, 32 32 C40 32, 56 24, 56 8" fill="#4F46E5" opacity="0.8"/>
  <path d="M8 56 C8 40, 24 32, 32 32 C24 32, 8 40, 8 56" fill="#4F46E5" opacity="0.7"/>
  <path d="M56 56 C56 40, 40 32, 32 32 C40 32, 56 40, 56 56" fill="#4F46E5" opacity="0.85"/>
  <circle cx="32" cy="32" r="4" fill="#4F46E5"/>
</svg>